<svg width="1600" height="420" viewBox="0 0 1600 420" fill="none" xmlns="http://www.w3.org/2000/svg">
  <rect width="1600" height="420" fill="#08111B"/>
  <rect width="1600" height="420" fill="url(#bg)"/>

  <g opacity="0.16">
    <circle cx="1320" cy="90" r="210" fill="#38BDF8"/>
    <circle cx="1390" cy="360" r="230" fill="#0F766E"/>
    <circle cx="180" cy="360" r="180" fill="#F59E0B"/>
  </g>

  <g opacity="0.1" stroke="#D6E3F0" stroke-width="2">
    <path d="M930 132H1490"/>
    <path d="M930 176H1490"/>
    <path d="M930 220H1490"/>
    <path d="M930 264H1490"/>
    <path d="M930 308H1490"/>
  </g>

  <g transform="translate(96 88) scale(6.5)">
    <path d="M21.29 16.71L22.71 15.29L19.5 12.11L16.5 11.26L18.41 11L22.6 7.8L21.4 6.2L17.59 9.05L14.91 9.5L18.11 6.31L17 1.76L15 2.24L15.86 5.69L14.76 6.83A3 3 0 0 0 9.24 6.83L8.11 5.69L9 2.24L7 1.76L5.89 6.31L9.09 9.5L6.4 9.05L2.6 6.2L1.4 7.8L5.6 11L7.46 11.31L4.46 12.16L1.29 15.29L2.71 16.71L5.5 13.89L7.87 13.22L4 16.54V22H6V17.46L7.56 16.12A4.5 4.5 0 0 0 16.44 16.12L18 17.46V22H20V16.54L16.13 13.22L18.5 13.89Z" fill="#F8FAFC"/>
  </g>

  <text x="286" y="162" font-family="Arial, Helvetica, sans-serif" font-size="84" font-weight="700" fill="#F8FAFC">CRUXpider</text>
  <text x="286" y="214" font-family="Arial, Helvetica, sans-serif" font-size="28" font-weight="400" fill="#C5D2E0">Academic paper analysis from titles.</text>

  <g>
    <rect x="288" y="270" width="180" height="46" rx="23" fill="#0F766E"/>
    <text x="325" y="300" font-family="Arial, Helvetica, sans-serif" font-size="21" font-weight="700" fill="#F8FAFC">Flask Web UI</text>

    <rect x="486" y="270" width="160" height="46" rx="23" fill="#1D4ED8"/>
    <text x="519" y="300" font-family="Arial, Helvetica, sans-serif" font-size="21" font-weight="700" fill="#F8FAFC">JSON API</text>

    <rect x="664" y="270" width="232" height="46" rx="23" fill="#B45309"/>
    <text x="699" y="300" font-family="Arial, Helvetica, sans-serif" font-size="21" font-weight="700" fill="#F8FAFC">CSV Batch Mode</text>
  </g>

  <defs>
    <linearGradient id="bg" x1="80" y1="50" x2="1520" y2="380" gradientUnits="userSpaceOnUse">
      <stop stop-color="#08101A"/>
      <stop offset="0.48" stop-color="#102131"/>
      <stop offset="1" stop-color="#0A1624"/>
    </linearGradient>
  </defs>
</svg>
