<svg width="1600" height="520" viewBox="0 0 1600 520" fill="none" xmlns="http://www.w3.org/2000/svg">
  <rect width="1600" height="520" fill="#07111D"/>
  <rect x="0" y="0" width="1600" height="520" fill="url(#bg)"/>
  <g opacity="0.18">
    <circle cx="1310" cy="96" r="220" fill="#38BDF8"/>
    <circle cx="1220" cy="420" r="250" fill="#0F766E"/>
    <circle cx="310" cy="120" r="180" fill="#F59E0B"/>
  </g>
  <g opacity="0.12" stroke="#E2E8F0">
    <path d="M1040 120C1110 120 1150 170 1210 170C1270 170 1300 130 1370 130C1440 130 1480 180 1540 180"/>
    <path d="M1010 180C1080 180 1120 230 1180 230C1240 230 1280 190 1350 190C1420 190 1460 240 1520 240"/>
    <path d="M980 240C1050 240 1090 290 1150 290C1210 290 1250 250 1320 250C1390 250 1430 300 1490 300"/>
  </g>
  <g>
    <rect x="92" y="92" width="180" height="180" rx="36" fill="#0F172A" stroke="#38BDF8" stroke-width="3"/>
    <path d="M142 170C164 135 202 120 228 128C240 132 248 140 252 152C257 166 251 182 239 193C228 203 212 209 197 216C178 224 162 237 154 255" stroke="#38BDF8" stroke-width="12" stroke-linecap="round"/>
    <path d="M132 205C118 202 103 207 96 219" stroke="#F8FAFC" stroke-width="7" stroke-linecap="round"/>
    <path d="M233 101C250 92 272 98 282 114" stroke="#F8FAFC" stroke-width="7" stroke-linecap="round"/>
    <circle cx="196" cy="170" r="10" fill="#F59E0B"/>
  </g>
  <g fill="#E2E8F0">
    <text x="320" y="170" font-family="Arial, Helvetica, sans-serif" font-size="88" font-weight="700">CRUXpider</text>
    <text x="320" y="235" font-family="Arial, Helvetica, sans-serif" font-size="28" font-weight="400" fill="#B6C2D1">
      Title-first academic paper analysis with arXiv, OpenAlex, and reproducibility-oriented code search fallback.
    </text>
  </g>
  <g>
    <rect x="322" y="290" width="184" height="44" rx="22" fill="#0F766E"/>
    <text x="357" y="319" font-family="Arial, Helvetica, sans-serif" font-size="21" font-weight="700" fill="#F8FAFC">Flask Web UI</text>
    <rect x="524" y="290" width="170" height="44" rx="22" fill="#1D4ED8"/>
    <text x="555" y="319" font-family="Arial, Helvetica, sans-serif" font-size="21" font-weight="700" fill="#F8FAFC">JSON API</text>
    <rect x="711" y="290" width="178" height="44" rx="22" fill="#B45309"/>
    <text x="739" y="319" font-family="Arial, Helvetica, sans-serif" font-size="21" font-weight="700" fill="#F8FAFC">CSV Batch Mode</text>
  </g>
  <g>
    <rect x="1000" y="118" width="420" height="260" rx="28" fill="#0B1625" stroke="#223348" stroke-width="2"/>
    <text x="1038" y="164" font-family="Arial, Helvetica, sans-serif" font-size="22" font-weight="700" fill="#F8FAFC">Pipeline</text>
    <circle cx="1060" cy="212" r="10" fill="#38BDF8"/>
    <text x="1084" y="219" font-family="Arial, Helvetica, sans-serif" font-size="20" fill="#D7E2EE">Paper title input</text>
    <circle cx="1060" cy="258" r="10" fill="#22C55E"/>
    <text x="1084" y="265" font-family="Arial, Helvetica, sans-serif" font-size="20" fill="#D7E2EE">arXiv metadata + PDF</text>
    <circle cx="1060" cy="304" r="10" fill="#F59E0B"/>
    <text x="1084" y="311" font-family="Arial, Helvetica, sans-serif" font-size="20" fill="#D7E2EE">OpenAlex venue + related works</text>
    <circle cx="1060" cy="350" r="10" fill="#F97316"/>
    <text x="1084" y="357" font-family="Arial, Helvetica, sans-serif" font-size="20" fill="#D7E2EE">GitHub repository search fallback</text>
  </g>
  <defs>
    <linearGradient id="bg" x1="92" y1="54" x2="1518" y2="492" gradientUnits="userSpaceOnUse">
      <stop stop-color="#08101B"/>
      <stop offset="0.5" stop-color="#0E2233"/>
      <stop offset="1" stop-color="#0A1726"/>
    </linearGradient>
  </defs>
</svg>
